<?xml version="1.0" encoding="UTF-8" standalone="no"?>
<svg
   xmlns:dc="http://purl.org/dc/elements/1.1/"
   xmlns:cc="http://creativecommons.org/ns#"
   xmlns:rdf="http://www.w3.org/1999/02/22-rdf-syntax-ns#"
   xmlns:svg="http://www.w3.org/2000/svg"
   xmlns="http://www.w3.org/2000/svg"
   viewBox="0 0 265.33334 296"
   height="296"
   width="265.33334"
   xml:space="preserve"
   id="svg2"
   version="1.1"><metadata
     id="metadata8"><rdf:RDF><cc:Work
         rdf:about=""><dc:format>image/svg+xml</dc:format><dc:type
           rdf:resource="http://purl.org/dc/dcmitype/StillImage" /></cc:Work></rdf:RDF></metadata><defs
     id="defs6"><clipPath
       id="clipPath22"
       clipPathUnits="userSpaceOnUse"><path
         style="clip-rule:evenodd"
         id="path20"
         d="M 991.711,2209.51 C 603.082,1859.8 268.613,1522 100.484,1160.34 -56.7461,822.133 -3.95703,538.984 271.406,409.82 616.281,248.066 848.27,379.703 991.711,688.813 1111.75,334.523 1499.65,247.773 1785.27,445.184 c 297.71,205.773 222.93,541.89 -16.28,903.776 -192.03,290.5 -481.43,573.7 -777.279,860.55 z" /></clipPath><linearGradient
       id="linearGradient34"
       spreadMethod="pad"
       gradientTransform="matrix(0.348995,-9.99391,9.99391,0.348995,1045.48,1545.97)"
       gradientUnits="userSpaceOnUse"
       y2="0"
       x2="62.049702"
       y1="0"
       x1="-62.049702"><stop
         id="stop24"
         offset="0"
         style="stop-opacity:1;stop-color:#ed1c24" /><stop
         id="stop26"
         offset="0.421875"
         style="stop-opacity:1;stop-color:#ffffff" /><stop
         id="stop28"
         offset="0.570313"
         style="stop-opacity:1;stop-color:#e5ea08" /><stop
         id="stop30"
         offset="0.757813"
         style="stop-opacity:1;stop-color:#ffffff" /><stop
         id="stop32"
         offset="1"
         style="stop-opacity:1;stop-color:#ec008c" /></linearGradient></defs><g
     transform="matrix(1.3333333,0,0,-1.3333333,0,296)"
     id="g10"><g
       transform="scale(0.1)"
       id="g12"><path
         id="path14"
         style="fill:#231f20;fill-opacity:1;fill-rule:nonzero;stroke:none"
         d="m 402.746,233.023 c 1.645,0 4.379,1.579 8.199,4.75 13.395,12.665 29.176,22.684 47.352,30.075 18.172,7.394 35.726,11.09 52.672,11.09 17.492,0 30.133,-3.629 37.922,-10.891 7.789,-7.258 11.679,-17.477 11.679,-30.676 0,-14.769 -3.687,-27.836 -11.07,-39.18 -7.375,-11.347 -16.809,-20.918 -28.281,-28.699 -11.477,-7.785 -24.192,-13.719 -38.121,-17.808 -13.942,-4.09 -27.465,-6.141 -40.586,-6.141 -6.282,0 -11.071,0.402 -14.34,1.187 5.187,8.184 11.058,16.95 17.621,26.325 6.559,9.367 12.906,18.472 19.059,27.308 6.148,8.84 11.886,17.016 17.218,24.547 5.325,7.52 9.496,13.653 12.5,18.403 1.918,2.894 2.871,5.539 2.871,7.917 0,3.43 -1.636,5.997 -4.918,7.719 -3.285,1.711 -6.972,2.571 -11.07,2.571 -3.277,0 -6.422,-0.532 -9.426,-1.582 -3.004,-1.055 -5.332,-2.637 -6.968,-4.75 -3.821,-5.016 -8.543,-11.809 -14.145,-20.387 -5.605,-8.582 -11.551,-17.68 -17.828,-27.309 -6.281,-9.633 -12.57,-19.262 -18.856,-28.898 -6.285,-9.633 -12.023,-18.008 -17.222,-25.129 -2.184,1.051 -4.504,2.039 -6.969,2.969 -2.453,0.921 -4.641,1.382 -6.559,1.382 -2.183,0 -3.757,-0.726 -4.71,-2.171 -0.961,-1.461 -1.438,-2.844 -1.438,-4.161 0,-2.379 1.231,-4.55 3.699,-6.531 2.449,-1.98 4.774,-3.629 6.957,-4.945 -3.273,-5.016 -7.855,-11.617 -13.734,-19.797 -5.867,-8.176 -12.082,-16.816 -18.649,-25.9258 C 349.051,85.1875 342.691,76.3477 336.551,67.7695 330.398,59.1875 325.273,52 321.172,46.1953 c -1.367,-2.1094 -2.25,-3.7617 -2.664,-4.9492 -0.403,-1.1875 -0.61,-2.5703 -0.61,-4.1563 0,-2.9023 1.707,-5.6015 5.125,-8.1132 3.411,-2.5078 7.032,-3.7578 10.86,-3.7578 4.64,0 8.328,1.9765 11.066,5.9414 4.649,6.5898 10.457,14.6406 17.422,24.1367 6.965,9.5039 14.07,19.0703 21.317,28.6992 7.246,9.6328 13.871,18.6679 19.886,27.1089 6.004,8.45 10.375,14.911 13.114,19.399 3.007,-1.059 7.105,-2.18 12.3,-3.363 5.188,-1.188 11.473,-1.786 18.86,-1.786 16.937,0 34.289,2.969 52.058,8.907 17.762,5.941 33.949,14.179 48.574,24.742 14.622,10.555 26.571,23.09 35.872,37.598 9.285,14.519 13.929,30.222 13.929,47.109 0,16.086 -5.804,29.219 -17.418,39.375 -11.617,10.164 -29.996,15.242 -55.14,15.242 -10.653,0 -21.789,-1.121 -33.407,-3.359 -11.609,-2.25 -22.886,-5.539 -33.812,-9.899 -10.938,-4.351 -21.047,-9.629 -30.332,-15.828 -9.301,-6.203 -17.09,-13.262 -23.375,-21.179 -3.277,-4.223 -4.918,-8.051 -4.918,-11.481 0,-2.371 0.957,-3.559 2.867,-3.559 z m 197.18,-60.96 c 0,-1.321 0.133,-2.504 0.414,-3.559 0.269,-1.063 0.539,-1.981 0.816,-2.77 -5.199,-4.492 -11.41,-10.089 -18.652,-16.82 -7.246,-6.73 -14.754,-13.66 -22.543,-20.781 -7.793,-7.129 -15.441,-14.25 -22.961,-21.379 -7.516,-7.1173 -14.004,-13.3282 -19.469,-18.5977 -3.285,-3.168 -4.922,-5.9375 -4.922,-8.3204 0,-2.3671 1.094,-3.5586 3.278,-3.5586 1.644,0 3.965,1.1915 6.968,3.5586 6.016,5.8086 12.778,12.1407 20.297,19 7.508,6.8631 15.098,13.7891 22.754,20.7771 7.645,7 14.957,13.731 21.922,20.196 6.973,6.461 13.051,12.203 18.246,17.214 1.637,-2.902 3.348,-5.941 5.117,-9.101 1.782,-3.164 2.672,-6.859 2.672,-11.09 0,-3.957 -1.914,-8.894 -5.738,-14.836 -3.828,-5.941 -11.348,-14.449 -22.547,-25.5312 -9.836,-9.7656 -17.902,-18.6718 -24.191,-26.7148 -6.282,-8.0508 -9.426,-15.7695 -9.426,-23.1641 0,-6.5898 2.594,-11.8007 7.793,-15.6289 5.187,-3.8281 11.207,-5.7382 18.027,-5.7382 6.571,0 13.672,1.3789 21.324,4.1562 7.653,2.7695 15.442,6.5977 23.368,11.4766 7.918,4.8828 15.914,10.5586 23.984,17.0273 8.059,6.457 15.637,13.3867 22.742,20.7774 3.012,2.8984 4.512,5.6679 4.512,8.3085 0,2.6407 -1.094,3.961 -3.285,3.961 -1.637,0 -3.547,-1.0586 -5.735,-3.168 C 652.117,75.0859 640.168,65 628.828,57.4766 617.484,49.957 608.395,46.1953 601.563,46.1953 c -6.008,0 -9.02,1.9805 -9.02,5.9375 0,2.6367 1.027,5.5391 3.074,8.7031 2.051,3.1719 4.723,6.5391 7.996,10.1016 3.282,3.5586 6.969,7.3164 11.071,11.2813 4.101,3.957 8.199,8.1796 12.293,12.6679 7.929,8.9653 14.281,16.9493 19.062,23.9373 4.789,7 7.176,13.922 7.176,20.778 0,4.492 -1.301,8.711 -3.895,12.668 -2.597,3.964 -5.738,7.793 -9.429,11.484 -3.688,3.687 -7.582,7.32 -11.684,10.887 -4.102,3.562 -7.785,7.191 -11.07,10.882 -0.543,0.532 -1.367,0.79 -2.453,0.79 -0.821,0 -2.051,-0.532 -3.688,-1.583 -1.644,-1.058 -3.285,-2.308 -4.922,-3.757 -1.644,-1.45 -3.07,-3.039 -4.304,-4.75 -1.235,-1.723 -1.844,-3.102 -1.844,-4.16 z m 232.015,-6.731 c 0,6.074 -2.183,10.953 -6.554,14.648 -4.379,3.692 -11.621,5.543 -21.727,5.543 -11.484,0 -22.961,-1.98 -34.433,-5.941 -11.477,-3.961 -22.414,-9.227 -32.801,-15.828 -10.383,-6.602 -20.149,-14.184 -29.305,-22.758 -9.156,-8.582 -17.016,-17.555 -23.57,-26.922 -6.559,-9.359 -11.758,-18.6638 -15.578,-27.8982 -3.828,-9.2383 -5.739,-17.9492 -5.739,-26.125 0,-22.4297 12.844,-33.6445 38.528,-33.6445 10.386,0 21.25,1.8398 32.593,5.539 11.336,3.6953 22.344,8.3789 33,14.0508 10.657,5.6719 20.633,11.9414 29.918,18.8047 9.301,6.8555 17.09,13.4531 23.375,19.789 3.821,3.9571 5.739,7.254 5.739,9.8946 0,2.375 -1.102,3.5625 -3.282,3.5625 -2.191,0 -4.238,-1.1875 -6.152,-3.5625 C 810.215,88.4141 803.32,82.418 795.25,76.4766 787.195,70.5391 778.785,65.0664 770.043,60.0508 c -8.742,-5.0117 -17.492,-9.043 -26.234,-12.0703 -8.746,-3.043 -16.672,-4.5547 -23.774,-4.5547 -12.027,0 -18.039,3.957 -18.039,11.8711 0,4.4883 1.094,9.5703 3.281,15.2422 2.184,5.6718 5.055,11.2773 8.602,16.8203 14.215,1.5859 28.359,5.0742 42.434,10.4883 14.074,5.4063 26.71,11.8083 37.914,19.1993 11.203,7.387 20.296,15.367 27.269,23.949 6.965,8.574 10.445,16.688 10.445,24.336 z m -30.332,2.773 c 3.282,0 5.258,-0.46 5.942,-1.382 0.683,-0.93 1.027,-2.571 1.027,-4.95 0,-4.222 -2.598,-9.238 -7.785,-15.043 -5.203,-5.804 -11.754,-11.281 -19.68,-16.425 -7.929,-5.137 -16.601,-9.563 -26.035,-13.258 -9.426,-3.692 -18.234,-5.543 -26.437,-5.543 4.922,6.863 10.656,13.664 17.218,20.391 6.559,6.718 13.25,12.793 20.086,18.195 6.832,5.414 13.391,9.773 19.676,13.07 6.281,3.297 11.617,4.945 15.988,4.945 z m 130.77,30.086 c -2.191,0 -4.031,-0.332 -5.535,-0.992 -1.5,-0.656 -3.348,-2.179 -5.539,-4.547 -4.641,-5.55 -11.61,-12.672 -20.899,-21.379 -9.289,-8.71 -19.336,-17.941 -30.136,-27.71 -10.793,-9.762 -21.653,-19.524 -32.582,-29.286 -10.934,-9.761 -20.36,-18.3434 -28.293,-25.7301 -3.551,-3.4297 -5.325,-6.3281 -5.325,-8.711 0,-2.1093 1.09,-3.1601 3.278,-3.1601 2.191,0 4.375,0.918 6.562,2.7695 18.313,16.6211 35.317,31.8597 51.035,45.7227 15.707,13.844 28.762,25.785 39.145,35.812 0.269,-0.789 0.418,-1.976 0.418,-3.558 0,-4.488 -0.625,-10.887 -1.856,-19.195 -1.222,-8.317 -2.867,-17.153 -4.918,-26.524 -2.043,-9.367 -4.371,-18.535 -6.964,-27.5077 -2.594,-8.9687 -5.122,-16.3594 -7.586,-22.1719 -9.559,2.3829 -18.715,4.293 -27.465,5.7461 -8.742,1.4493 -16.528,2.1797 -23.364,2.1797 -5.187,0 -7.789,-2.5117 -7.789,-7.5234 0,-4.7539 1.161,-10.2305 3.481,-16.4297 2.328,-6.1992 5.605,-12.0078 9.836,-17.418 4.238,-5.4062 9.301,-9.957 15.172,-13.6484 5.875,-3.6992 12.367,-5.53907 19.472,-5.53907 5.739,0 10.934,1.77737 15.575,5.33597 4.648,3.5625 8.753,7.6562 12.304,12.2734 3.551,4.6133 6.285,8.9727 8.192,13.0586 1.918,4.0898 3.144,6.5273 3.695,7.3242 1.09,-0.2656 2.734,-0.3945 4.918,-0.3945 6.008,0 12.23,1.3867 18.652,4.1562 6.418,2.7696 12.5,6 18.239,9.6914 5.738,3.6993 10.863,7.3907 15.367,11.0938 4.519,3.6836 7.59,6.4609 9.226,8.3086 2.735,2.8945 4.102,5.8086 4.102,8.707 0,2.3711 -1.098,3.5586 -3.277,3.5586 -1.641,0 -3.555,-1.1875 -5.739,-3.5586 -2.187,-2.1094 -5.328,-4.8203 -9.426,-8.1172 -4.105,-3.3008 -8.75,-6.5312 -13.941,-9.6914 -5.195,-3.1719 -10.449,-5.9414 -15.781,-8.3164 -5.332,-2.375 -10.18,-3.5664 -14.551,-3.5664 h -2.465 c 2.465,5.8125 5.125,13.7227 7.992,23.7539 2.871,10.0235 5.536,21.1092 7.996,33.2462 2.461,12.137 4.446,24.742 5.946,37.801 1.504,13.058 2.262,25.394 2.262,37.008 0,2.378 -0.899,4.156 -2.676,5.351 -1.77,1.18 -4.028,1.777 -6.758,1.777 z M 843.422,51.3398 c 0,2.9063 1.367,4.3594 4.101,4.3594 1.364,0 3.348,-0.1367 5.95,-0.4023 2.586,-0.2578 5.32,-0.6602 8.191,-1.1875 2.867,-0.5235 5.738,-1.0508 8.606,-1.5821 2.871,-0.5273 5.402,-1.0507 7.593,-1.582 -0.824,-1.8476 -1.847,-4.0898 -3.082,-6.7265 -1.23,-2.6407 -2.597,-5.1524 -4.097,-7.5235 -1.504,-2.3789 -3.075,-4.418 -4.715,-6.1367 -1.645,-1.7148 -3.414,-2.5703 -5.332,-2.5703 -1.633,0 -3.477,0.9219 -5.532,2.7695 -2.05,1.8477 -3.89,4.0274 -5.535,6.5313 -1.636,2.5078 -3.07,5.0781 -4.3,7.7187 -1.231,2.6406 -1.848,4.75 -1.848,6.332 z M 1139.8,165.332 c 0,6.074 -2.19,10.953 -6.56,14.648 -4.38,3.692 -11.61,5.543 -21.72,5.543 -11.49,0 -22.96,-1.98 -34.44,-5.941 -11.48,-3.961 -22.41,-9.227 -32.79,-15.828 -10.4,-6.602 -20.16,-14.184 -29.32,-22.758 -9.15,-8.582 -17.009,-17.555 -23.564,-26.922 -6.558,-9.359 -11.754,-18.6638 -15.578,-27.8982 -3.832,-9.2383 -5.734,-17.9492 -5.734,-26.125 0,-22.4297 12.84,-33.6445 38.526,-33.6445 10.38,0 21.25,1.8398 32.59,5.539 11.34,3.6953 22.34,8.3789 33,14.0508 10.66,5.6719 20.63,11.9414 29.92,18.8047 9.3,6.8555 17.09,13.4531 23.37,19.789 3.83,3.9571 5.74,7.254 5.74,9.8946 0,2.375 -1.1,3.5625 -3.28,3.5625 -2.19,0 -4.24,-1.1875 -6.16,-3.5625 -5.73,-6.0703 -12.63,-12.0664 -20.69,-18.0078 -8.06,-5.9375 -16.47,-11.4102 -25.21,-16.4258 -8.74,-5.0117 -17.49,-9.043 -26.24,-12.0703 -8.74,-3.043 -16.67,-4.5547 -23.77,-4.5547 -12.02,0 -18.04,3.957 -18.04,11.8711 0,4.4883 1.1,9.5703 3.28,15.2422 2.19,5.6718 5.05,11.2773 8.61,16.8203 14.21,1.5859 28.35,5.0742 42.43,10.4883 14.07,5.4063 26.71,11.8083 37.91,19.1993 11.21,7.387 20.3,15.367 27.26,23.949 6.98,8.574 10.46,16.688 10.46,24.336 z m -30.34,2.773 c 3.28,0 5.26,-0.46 5.95,-1.382 0.68,-0.93 1.02,-2.571 1.02,-4.95 0,-4.222 -2.59,-9.238 -7.79,-15.043 -5.19,-5.804 -11.75,-11.281 -19.67,-16.425 -7.93,-5.137 -16.6,-9.563 -26.03,-13.258 -9.43,-3.692 -18.24,-5.543 -26.44,-5.543 4.91,6.863 10.66,13.664 17.22,20.391 6.55,6.718 13.24,12.793 20.08,18.195 6.83,5.414 13.39,9.773 19.67,13.07 6.29,3.297 11.62,4.945 15.99,4.945 z m 164.8,10.293 c 0,3.696 -1.44,6.266 -4.31,7.715 -2.87,1.457 -6.49,2.18 -10.86,2.18 -7.38,0 -17.15,-3.434 -29.31,-10.289 -12.16,-6.863 -24.94,-15.371 -38.33,-25.527 -13.39,-10.164 -26.57,-20.852 -39.56,-32.063 -12.98,-11.223 -23.84,-21.1796 -32.59,-29.8867 -4.64,-4.4804 -6.97,-8.3085 -6.97,-11.4804 0,-2.1094 1.1,-3.1602 3.28,-3.1602 1.92,0 3.83,0.9219 5.74,2.7696 9.29,8.7031 18.86,17.2773 28.7,25.7267 9.84,8.441 19.47,16.289 28.9,23.555 9.43,7.246 18.24,13.785 26.44,19.589 8.19,5.805 15.44,10.418 21.73,13.848 2.72,1.32 4.64,1.98 5.74,1.98 1.63,0 2.45,-0.66 2.45,-1.98 0,-2.371 -1.77,-6.66 -5.32,-12.859 -3.56,-6.203 -8.07,-13.391 -13.54,-21.571 -5.46,-8.179 -11.4,-16.828 -17.82,-25.929 -6.43,-9.1019 -12.65,-17.809 -18.65,-26.1215 -6.02,-8.3164 -11.28,-15.707 -15.78,-22.1679 -4.52,-6.4727 -7.59,-11.1485 -9.23,-14.0508 -0.27,-0.5313 -0.48,-1.1211 -0.62,-1.7813 -0.14,-0.6562 -0.2,-1.6484 -0.2,-2.9648 0,-2.9141 1.98,-5.9414 5.95,-9.1094 3.95,-3.164 8.26,-4.75 12.9,-4.75 3.83,0 6.83,1.4492 9.02,4.3555 7.38,9.5039 16.67,20.1797 27.88,32.0586 11.2,11.8711 22.96,23.4883 35.25,34.832 12.3,11.3476 24.25,21.7696 35.87,31.2696 11.61,9.496 21.52,16.625 29.72,21.375 1.37,0.531 2.53,1.055 3.48,1.582 0.96,0.531 1.98,0.793 3.08,0.793 1.09,0 1.63,-0.391 1.63,-1.184 0,-0.531 -0.13,-1.191 -0.4,-1.976 -0.83,-2.383 -3.21,-5.942 -7.17,-10.692 -3.97,-4.754 -8.61,-10.359 -13.95,-16.82 -5.32,-6.473 -10.92,-13.328 -16.8,-20.5859 -5.88,-7.2539 -11.34,-14.3828 -16.4,-21.3711 -5.05,-6.9922 -9.22,-13.5898 -12.5,-19.7929 -3.28,-6.1993 -4.91,-11.4141 -4.91,-15.6368 0,-5.2812 2.38,-9.2265 7.16,-11.871 4.79,-2.6368 10.32,-3.9571 16.6,-3.9571 9.02,0 19,2.5703 29.93,7.7188 10.93,5.1406 21.45,11.1484 31.57,18.0078 10.1,6.8633 19.19,13.6523 27.25,20.3789 8.07,6.7344 13.74,11.6836 17.01,14.8516 2.2,2.1132 3.28,4.3515 3.28,6.7304 0,2.6289 -1.36,3.9492 -4.09,3.9492 -1.65,0 -3.28,-0.789 -4.92,-2.3711 -4.1,-4.2226 -9.7,-8.7773 -16.81,-13.6562 -7.1,-4.8828 -14.35,-9.5039 -21.72,-13.8555 -7.39,-4.3593 -14.36,-7.9765 -20.91,-10.8867 -6.56,-2.8984 -11.61,-4.3516 -15.17,-4.3516 -3.83,0 -5.74,1.0508 -5.74,3.168 0,2.6367 1.85,6.6641 5.54,12.0703 3.69,5.4141 8.27,11.6836 13.73,18.8047 5.47,7.1289 11.34,14.707 17.63,22.7582 6.28,8.05 12.15,15.898 17.63,23.547 5.46,7.66 10.04,14.914 13.73,21.769 3.68,6.863 5.53,12.539 5.53,17.023 0,3.696 -1.23,6.208 -3.69,7.516 -2.45,1.324 -5.88,1.981 -10.25,1.981 -5.74,0 -12.3,-1.649 -19.68,-4.942 -7.37,-3.297 -15.23,-7.586 -23.57,-12.867 -8.32,-5.277 -16.73,-11.211 -25.21,-17.813 -8.47,-6.597 -16.6,-13.195 -24.39,-19.789 -7.78,-6.597 -14.96,-12.793 -21.52,-18.605 -6.56,-5.8008 -11.89,-10.6797 -15.99,-14.6407 1.64,2.1133 4.18,5.4102 7.58,9.8906 3.42,4.4881 7.18,9.5001 11.28,15.0471 4.1,5.539 8.27,11.41 12.5,17.609 4.23,6.203 8.07,12.203 11.49,18.008 3.4,5.813 6.21,11.285 8.39,16.434 2.19,5.14 3.29,9.3 3.29,12.464 z m 208.65,21.77 -25.82,-31.266 c -5.47,-4.75 -11.76,-10.23 -18.86,-16.425 -7.11,-6.207 -14.62,-12.801 -22.55,-19.797 -7.92,-6.992 -16.05,-14.246 -24.39,-21.766 -8.33,-7.519 -16.47,-14.9804 -24.39,-22.3671 -3.01,-2.6406 -4.51,-5.2774 -4.51,-7.9102 0,-2.3828 1.24,-3.5703 3.69,-3.5703 1.37,0 2.73,0.5274 4.1,1.5899 3.83,3.1601 8.41,7.121 13.73,11.871 5.33,4.75 10.8,9.6997 16.4,14.8397 5.61,5.149 11,10.227 16.19,15.238 5.2,5.016 9.7,9.368 13.54,13.067 -2.47,-3.168 -6.91,-8.836 -13.33,-17.02 -6.42,-8.175 -12.98,-17.0153 -19.68,-26.5153 -6.69,-9.5 -12.64,-18.8711 -17.83,-28.1133 -5.19,-9.2265 -7.79,-16.7539 -7.79,-22.5586 0,-6.3281 2.18,-11.5429 6.55,-15.6367 4.38,-4.0859 10.53,-6.1289 18.46,-6.1289 9.29,0 19.2,2.5078 29.71,7.5196 10.52,5.0078 20.64,10.8203 30.34,17.4218 9.7,6.5899 18.31,13.2539 25.82,19.9805 7.52,6.7266 13.19,11.9453 17.02,15.6328 2.18,2.1094 3.62,3.8906 4.3,5.3438 0.69,1.457 1.03,2.707 1.03,3.7617 0,2.1172 -1.23,3.1679 -3.69,3.1679 -1.91,0 -3.83,-0.9218 -5.74,-2.7695 -3.28,-3.168 -8.14,-7.7187 -14.55,-13.6601 -6.43,-5.9297 -13.53,-11.7422 -21.32,-17.4102 -7.79,-5.6797 -15.64,-10.6914 -23.57,-15.0391 -7.93,-4.3593 -14.89,-6.539 -20.91,-6.539 -1.36,0 -2.6,0.332 -3.68,0.9883 -1.1,0.6601 -1.65,1.9179 -1.65,3.7617 0,3.4375 2.05,9.039 6.15,16.8281 4.1,7.7813 9.43,16.6211 15.99,26.5195 6.56,9.8907 14,20.52 22.34,31.859 8.33,11.348 16.54,22.43 24.6,33.247 8.06,10.82 15.71,21.05 22.95,30.679 7.24,9.629 13.19,17.61 17.83,23.953 9.57,1.317 20.02,2.364 31.36,3.157 11.35,0.8 23.3,1.449 35.87,1.98 3.28,0.27 6.15,1.121 8.61,2.578 2.46,1.449 4.51,3.164 6.15,5.141 1.64,1.98 2.87,4.09 3.69,6.332 0.82,2.246 1.23,4.289 1.23,6.137 0,3.691 -1.09,5.539 -3.28,5.539 -4.1,0 -9.43,-0.329 -15.99,-0.985 -6.56,-0.664 -13.18,-1.383 -19.88,-2.179 -6.69,-0.793 -12.98,-1.649 -18.86,-2.571 -5.88,-0.926 -10.18,-1.652 -12.91,-2.172 4.65,5.539 9.98,11.996 15.98,19.391 6.02,7.387 11.76,14.504 17.23,21.375 1.09,1.312 1.77,2.371 2.04,3.16 0.28,0.789 0.41,1.449 0.41,1.981 0,2.64 -3,3.961 -9.02,3.961 -4.92,0 -10.31,-0.86 -16.18,-2.571 -5.88,-1.719 -9.91,-3.761 -12.1,-6.14 -3.28,-3.961 -6.63,-8.176 -10.04,-12.668 -3.42,-4.481 -6.77,-8.774 -10.05,-12.86 -3.27,-4.09 -6.27,-7.98 -9.01,-11.679 -2.74,-3.692 -5.06,-6.727 -6.97,-9.106 -9.57,-1.316 -19.2,-3.035 -28.9,-5.144 -9.71,-2.11 -18.24,-4.223 -25.62,-6.332 -4.65,-1.317 -8.68,-3.629 -12.1,-6.926 -3.41,-3.305 -5.12,-6.133 -5.12,-8.512 0,-2.109 1.37,-3.16 4.11,-3.16 0.53,0 1.01,0.058 1.42,0.191 0.42,0.141 0.9,0.2 1.44,0.2 7.65,1.32 15.92,2.839 24.8,4.55 8.88,1.719 17.28,3.239 25.21,4.555 z m 135.68,-1.977 c -2.18,0 -4.03,-0.332 -5.53,-0.992 -1.5,-0.656 -3.35,-2.179 -5.54,-4.547 -4.64,-5.55 -11.61,-12.672 -20.9,-21.379 -9.29,-8.71 -19.33,-17.941 -30.14,-27.71 -10.79,-9.762 -21.65,-19.524 -32.58,-29.286 -10.94,-9.761 -20.36,-18.3434 -28.29,-25.7301 -3.55,-3.4297 -5.32,-6.3281 -5.32,-8.711 0,-2.1093 1.09,-3.1601 3.27,-3.1601 2.19,0 4.38,0.918 6.56,2.7695 18.31,16.6211 35.32,31.8597 51.04,45.7227 15.71,13.844 28.76,25.785 39.14,35.812 0.28,-0.789 0.42,-1.976 0.42,-3.558 0,-4.488 -0.62,-10.887 -1.85,-19.195 -1.23,-8.317 -2.87,-17.153 -4.92,-26.524 -2.04,-9.367 -4.37,-18.535 -6.96,-27.5077 -2.6,-8.9687 -5.13,-16.3594 -7.59,-22.1719 -9.56,2.3829 -18.72,4.293 -27.47,5.7461 -8.74,1.4493 -16.53,2.1797 -23.36,2.1797 -5.19,0 -7.79,-2.5117 -7.79,-7.5234 0,-4.7539 1.17,-10.2305 3.48,-16.4297 2.33,-6.1992 5.6,-12.0078 9.84,-17.418 4.24,-5.4062 9.3,-9.957 15.17,-13.6484 5.87,-3.6992 12.37,-5.53907 19.47,-5.53907 5.74,0 10.94,1.77737 15.58,5.33597 4.64,3.5625 8.75,7.6562 12.3,12.2734 3.55,4.6133 6.29,8.9727 8.19,13.0586 1.92,4.0898 3.15,6.5273 3.69,7.3242 1.1,-0.2656 2.74,-0.3945 4.93,-0.3945 6.01,0 12.23,1.3867 18.65,4.1562 6.42,2.7696 12.5,6 18.24,9.6914 5.73,3.6993 10.86,7.3907 15.37,11.0938 4.51,3.6836 7.58,6.4609 9.22,8.3086 2.73,2.8945 4.1,5.8086 4.1,8.707 0,2.3711 -1.09,3.5586 -3.28,3.5586 -1.64,0 -3.55,-1.1875 -5.74,-3.5586 -2.18,-2.1094 -5.32,-4.8203 -9.42,-8.1172 -4.1,-3.3008 -8.75,-6.5312 -13.94,-9.6914 -5.2,-3.1719 -10.45,-5.9414 -15.79,-8.3164 -5.32,-2.375 -10.17,-3.5664 -14.54,-3.5664 h -2.47 c 2.47,5.8125 5.13,13.7227 8,23.7539 2.87,10.0235 5.53,21.1092 7.99,33.2462 2.46,12.137 4.44,24.742 5.95,37.801 1.5,13.058 2.25,25.394 2.25,37.008 0,2.378 -0.89,4.156 -2.67,5.351 -1.77,1.18 -4.03,1.777 -6.76,1.777 z M 1529.64,51.3398 c 0,2.9063 1.37,4.3594 4.1,4.3594 1.36,0 3.35,-0.1367 5.94,-0.4023 2.59,-0.2578 5.33,-0.6602 8.2,-1.1875 2.87,-0.5235 5.74,-1.0508 8.6,-1.5821 2.87,-0.5273 5.41,-1.0507 7.59,-1.582 -0.81,-1.8476 -1.84,-4.0898 -3.07,-6.7265 -1.23,-2.6407 -2.6,-5.1524 -4.11,-7.5235 -1.5,-2.3789 -3.07,-4.418 -4.71,-6.1367 -1.64,-1.7148 -3.41,-2.5703 -5.33,-2.5703 -1.64,0 -3.48,0.9219 -5.53,2.7695 -2.05,1.8477 -3.89,4.0274 -5.54,6.5313 -1.64,2.5078 -3.07,5.0781 -4.3,7.7187 -1.23,2.6406 -1.84,4.75 -1.84,6.332" /><g
         id="g16"><g
           clip-path="url(#clipPath22)"
           id="g18"><path
             id="path36"
             style="fill:url(#linearGradient34);fill-opacity:1;fill-rule:nonzero;stroke:none"
             d="M 991.711,2209.51 C 603.082,1859.8 268.613,1522 100.484,1160.34 -56.7461,822.133 -3.95703,538.984 271.406,409.82 616.281,248.066 848.27,379.703 991.711,688.813 1111.75,334.523 1499.65,247.773 1785.27,445.184 c 297.71,205.773 222.93,541.89 -16.28,903.776 -192.03,290.5 -481.43,573.7 -777.279,860.55" /></g></g><path
         id="path38"
         style="fill:none;stroke:#231f20;stroke-width:10.00059986;stroke-linecap:butt;stroke-linejoin:miter;stroke-miterlimit:22.92560005;stroke-dasharray:none;stroke-opacity:1"
         d="M 991.711,2209.51 C 603.082,1859.8 268.613,1522 100.484,1160.34 -56.7461,822.133 -3.95703,538.984 271.406,409.82 616.281,248.066 848.27,379.703 991.711,688.813 1111.75,334.523 1499.65,247.773 1785.27,445.184 c 297.71,205.773 222.93,541.89 -16.28,903.776 -192.03,290.5 -481.43,573.7 -777.279,860.55 z" /><path
         id="path40"
         style="fill:#ffffff;fill-opacity:1;fill-rule:evenodd;stroke:none"
         d="m 995.781,2068.04 c -350.32,-336.6 -629.703,-632.73 -761,-891.98 C 96.1133,902.25 106.141,626.738 356.863,515.918 675.719,374.965 870.844,567.805 987.645,928.508 1098.75,612.629 1257.42,388.574 1585.86,492.34 c 248.75,85.957 343.64,360.637 158.71,695.51 -175.64,318.06 -451.71,600.58 -748.789,880.19" /><path
         id="path42"
         style="fill:none;stroke:#231f20;stroke-width:10.00059986;stroke-linecap:butt;stroke-linejoin:miter;stroke-miterlimit:22.92560005;stroke-dasharray:none;stroke-opacity:1"
         d="m 995.781,2068.04 c -350.32,-336.6 -629.703,-632.73 -761,-891.98 C 96.1133,902.25 106.141,626.738 356.863,515.918 675.719,374.965 870.844,567.805 987.645,928.508 1098.75,612.629 1257.42,388.574 1585.86,492.34 c 248.75,85.957 343.64,360.637 158.71,695.51 -175.64,318.06 -451.71,600.58 -748.789,880.19 z" /><path
         id="path44"
         style="fill:#ec008c;fill-opacity:1;fill-rule:nonzero;stroke:none"
         d="m 1727.93,2195.8 c 30.54,0 59.8,-7.35 87.8,-22.14 28.07,-14.7 50.13,-35.84 66.16,-63.34 16.02,-27.57 24.02,-56.36 24.02,-86.39 0,-29.94 -7.84,-58.51 -23.55,-85.63 -15.79,-27.11 -37.68,-48.33 -65.84,-63.49 -28.08,-15.16 -57.66,-22.74 -88.59,-22.74 -31.02,0 -60.53,7.58 -88.69,22.74 -28.08,15.16 -50.05,36.38 -65.75,63.49 -15.7,27.12 -23.56,55.69 -23.56,85.63 0,30.03 8.01,58.82 24.03,86.39 16.03,27.5 38.08,48.64 66.08,63.34 28.08,14.79 57.34,22.14 87.89,22.14 z m 0.23,-33.7 c -24.5,0 -47.99,-5.9 -70.44,-17.69 -22.44,-11.8 -40.13,-28.8 -53.06,-50.94 -13,-22.13 -19.43,-45.33 -19.43,-69.54 0,-24.13 6.35,-47.1 18.96,-68.93 12.6,-21.82 30.22,-38.91 52.82,-51.16 22.61,-12.25 46.32,-18.38 71.15,-18.38 24.9,0 48.63,6.13 71.23,18.38 22.52,12.25 40.14,29.34 52.83,51.16 12.69,21.83 19.03,44.8 19.03,68.93 0,24.21 -6.42,47.41 -19.35,69.54 -12.93,22.14 -30.7,39.14 -53.22,50.94 -22.53,11.79 -46.08,17.69 -70.52,17.69 z m -80.67,-230.15 v 182.36 h 38.4 c 35.93,0 56.07,-0.15 60.36,-0.46 12.68,-1 22.6,-3.46 29.66,-7.28 7.06,-3.82 12.93,-9.64 17.62,-17.46 4.75,-7.89 7.13,-16.62 7.13,-26.2 0,-13.09 -4.44,-24.35 -13.41,-33.7 -8.88,-9.42 -21.41,-15.16 -37.52,-17.46 5.72,-2.06 10.16,-4.37 13.25,-6.81 3.1,-2.45 7.39,-7.13 12.77,-14.01 1.43,-1.77 6.04,-9.2 13.96,-22.22 l 22.29,-36.76 h -47.35 l -15.86,29.56 c -10.63,19.91 -19.52,32.48 -26.5,37.6 -6.89,5.14 -15.79,7.74 -26.49,7.74 h -9.91 v -74.9 z m 38.4,103.63 h 15.55 c 22.12,0 35.85,0.83 41.24,2.44 5.31,1.69 9.52,4.52 12.61,8.66 3.18,4.14 4.67,8.81 4.67,14.02 0,5.13 -1.49,9.64 -4.51,13.55 -3.02,3.99 -7.3,6.81 -12.93,8.57 -5.55,1.7 -19.28,2.54 -41.08,2.54 h -15.55 v -49.78" /><path
         id="path46"
         style="fill:#2e3192;fill-opacity:1;fill-rule:nonzero;stroke:none"
         d="m 1030.83,1068.26 c 0,-55.61 -22.7,-98.561 -68.092,-128.846 C 929.313,917.387 894.891,906.379 859.48,906.379 H 593.105 v 17.34 c 21.954,0 38.415,8.261 49.395,24.777 7.977,11.563 11.969,24.231 11.969,37.992 v 371.672 c 0,18.72 -2.992,30.83 -8.973,36.35 -7.488,7.15 -23.203,10.72 -47.141,10.72 h -38.16 c -29.437,0 -54,-8.39 -73.695,-25.18 -19.703,-16.8 -29.562,-37.86 -29.562,-63.18 0,-16.53 4.242,-30.56 12.722,-42.13 8.477,-11.56 18.953,-17.34 31.422,-17.34 9.484,0 16.711,6.33 21.699,18.99 1.496,3.31 1.992,8.54 1.496,15.7 0,5.51 -0.5,10.46 -1.496,14.87 -0.996,4.4 -1.5,4.67 -1.5,0.82 0,8.26 2.996,15 8.985,20.24 5.984,5.23 12.968,7.84 20.945,7.84 9.984,0 18.707,-4.82 26.191,-14.46 7.485,-9.63 11.219,-20.51 11.219,-32.62 0,-18.16 -7.73,-34.55 -23.187,-49.14 -15.465,-14.59 -33.426,-21.89 -53.875,-21.89 -23.446,0 -43.399,10.32 -59.86,30.97 -16.457,20.66 -24.691,45.57 -24.691,74.75 0,48.46 21.953,86.72 65.847,114.8 31.918,20.37 67.09,30.57 105.5,30.57 H 816.84 c 127.687,0 191.54,-42.4 191.54,-127.2 0,-32.49 -9.728,-60.3 -29.185,-83.41 -19.449,-23.14 -46.144,-38.83 -80.054,-47.09 87.793,-24.22 131.689,-71.85 131.689,-142.88 z m -136.182,255.21 c 0,33.03 -8.726,59.19 -26.183,78.46 -17.469,19.28 -41.149,28.91 -71.082,28.91 -6.988,0 -12.735,-4.54 -17.211,-13.62 -4.484,-9.09 -6.742,-18.86 -6.742,-29.33 v -173.44 c 0,0 14.226,0 42.66,0 20.453,0 38.648,11.01 54.613,33.03 15.969,22.03 23.945,47.36 23.945,75.99 z m 12.727,-258.52 c 0,34.7 -8.98,63.61 -26.941,86.73 -17.961,23.13 -40.899,34.68 -68.844,34.68 h -38.16 v -162.7 c 0,-30.836 4,-51.894 11.976,-63.183 7.985,-11.293 20.461,-16.93 37.407,-16.93 24.949,0 45.273,11.144 60.984,33.453 15.711,22.293 23.578,51.61 23.578,87.95" /><path
         id="path48"
         style="fill:#2e3192;fill-opacity:1;fill-rule:nonzero;stroke:none"
         d="m 1630.93,1103.91 c 0,-56.01 -29.3,-102.94 -87.93,-140.777 -58.61,-37.836 -131.05,-56.754 -217.35,-56.754 -70.83,0 -128.57,13.141 -173.21,39.437 -44.65,26.297 -66.96,60.174 -66.96,101.654 0,36.77 20.81,69.58 62.47,98.44 41.65,28.86 88.91,43.29 141.78,43.29 32.42,0 58.37,-6.84 77.82,-20.52 19.45,-13.68 29.19,-31.64 29.19,-53.88 0,-20.94 -10.6,-39.86 -31.81,-56.75 -21.2,-16.89 -45.27,-25.34 -72.2,-25.34 -12.47,0 -23.19,4.18 -32.18,12.51 -8.98,8.34 -13.46,18.07 -13.46,29.18 0,10.69 4.48,20.09 13.46,28.23 8.99,8.11 19.22,12.17 30.68,12.17 12.47,0 22.95,-7.05 31.43,-21.16 20.95,3.85 31.43,12.4 31.43,25.66 0,12.4 -6.37,22.87 -19.09,31.42 -12.71,8.55 -28.3,12.83 -46.75,12.83 -37.91,0 -70.47,-11.12 -97.65,-33.35 -27.19,-22.23 -40.78,-48.95 -40.78,-80.17 0,-35.06 17.2,-63.487 51.63,-85.288 34.42,-21.812 79.05,-32.715 133.93,-32.715 54.87,0 102.37,13.684 142.53,41.051 40.15,27.362 60.23,59.852 60.23,97.482 0,32.49 -38.41,63.49 -115.22,92.99 l -162.37,62.21 c -65.34,25.22 -98.01,62.85 -98.01,112.87 0,39.76 17.21,71.51 51.63,95.24 34.42,23.73 80.06,35.59 136.92,35.59 45.9,0 84.3,-8.98 115.23,-26.93 30.93,-17.96 46.39,-39.98 46.39,-66.06 0,-20.1 -10.35,-37.52 -31.05,-52.27 -20.71,-14.75 -44.77,-22.13 -72.2,-22.13 -18.46,0 -34.43,4.7 -47.89,14.11 -13.47,9.41 -20.2,20.53 -20.2,33.35 0,10.26 4.85,19.56 14.58,27.9 9.73,8.34 20.58,12.5 32.56,12.5 20.44,0 34.41,-12.61 41.88,-37.83 14.47,0 25.95,3.21 34.43,9.62 6.99,5.98 10.48,13.04 10.48,21.16 0,17.1 -11.48,31.32 -34.43,42.65 -22.94,11.33 -50.87,17 -83.8,17 -37.41,0 -65.72,-6.64 -84.92,-19.89 -19.2,-13.25 -28.81,-30.78 -28.81,-52.59 0,-15.39 10.73,-28.64 32.19,-39.76 17.95,-8.97 61.34,-25.22 130.18,-48.74 23.94,-8.12 53.38,-20.52 88.3,-37.2 41.89,-20.09 72.31,-37.62 91.27,-52.58 30.43,-23.95 45.65,-53.24 45.65,-87.86" /><path
         id="path50"
         style="fill:#2e3192;fill-opacity:1;fill-rule:evenodd;stroke:none"
         d="m 1333.09,888.586 c 32.77,0 59.32,-29.606 59.32,-66.113 0,-36.516 -26.55,-66.106 -59.32,-66.106 -32.75,0 -59.31,29.59 -59.31,66.106 0,36.507 26.56,66.113 59.31,66.113" /><path
         id="path52"
         style="fill:#2e3192;fill-opacity:1;fill-rule:evenodd;stroke:none"
         d="m 752.406,888.219 c 32.895,0 59.551,-29.438 59.551,-65.746 0,-36.309 -26.656,-65.746 -59.551,-65.746 -32.898,0 -59.562,29.437 -59.562,65.746 0,36.308 26.664,65.746 59.562,65.746" /></g></g></svg>